<svg width="322" height="64" viewBox="0 0 322 64" fill="none" xmlns="http://www.w3.org/2000/svg">
<g clip-path="url(#clip0_22_1051)">
<path d="M59.8061 53.5762H55.1626V30.1988H60.8583L70.5706 46.7613V30.1988H75.179V53.5762H69.7775L59.7997 36.4541V53.5762H59.8061Z" fill="#381360"/>
<path d="M81.4375 52.9174C80.1199 52.1947 79.1093 51.1713 78.409 49.8538C77.7054 48.5362 77.3568 47.0107 77.3568 45.2774V44.8489C77.3568 43.1379 77.7118 41.6221 78.4281 40.3045C79.1413 38.9869 80.1615 37.9667 81.4918 37.2408C82.819 36.518 84.3605 36.1535 86.1194 36.1535C88.9496 36.1535 91.0923 37.0649 92.541 38.8878C93.9897 40.7106 94.6357 43.1347 94.4822 46.1632H82.0707C82.2913 49.0383 83.6409 50.4774 86.1194 50.4774C87.1076 50.4774 87.9135 50.2695 88.5403 49.8506C89.1671 49.4348 89.5892 48.8752 89.8067 48.1716H94.383C93.9673 49.9945 93.0335 51.4208 91.5848 52.4505C90.1361 53.4835 88.3132 53.9984 86.1194 53.9984C84.3189 53.9984 82.7615 53.637 81.4439 52.9111L81.4375 52.9174ZM89.7683 43.1379C89.6596 42.041 89.295 41.1903 88.681 40.5859C88.067 39.9815 87.2003 39.6809 86.081 39.6809C84.9617 39.6809 84.0439 39.9655 83.3979 40.5379C82.7487 41.1104 82.3265 41.9771 82.1314 43.1379H89.7715H89.7683Z" fill="#381360"/>
<path d="M97.9008 48.6705V39.9463H94.7412V36.5884H97.9008V31.187H102.509V36.5884H106.922V39.9463H102.509V48.2771C102.509 49.0223 102.695 49.5595 103.069 49.8889C103.443 50.2183 104.067 50.3814 104.946 50.3814C105.538 50.3814 106.219 50.2727 106.986 50.052V53.5762C106.59 53.7073 106.107 53.8129 105.538 53.8896C104.965 53.9664 104.428 54.0048 103.926 54.0048C99.9092 54.0048 97.9008 52.2267 97.9008 48.6705Z" fill="#381360"/>
<path d="M117.428 53.5762H112.589L107.584 36.5852H112.228L115.292 48.7025L118.355 36.5852H122.932L125.995 48.7664L129.155 36.5852H133.699L128.627 53.5762H123.789L120.594 41.6892L117.434 53.5762H117.428Z" fill="#381360"/>
<path d="M137.543 52.9015C136.226 52.1659 135.206 51.1394 134.48 49.8218C133.754 48.5042 133.392 46.9915 133.392 45.2774V44.8489C133.392 43.1603 133.754 41.6541 134.48 40.3397C135.202 39.0221 136.226 37.9955 137.543 37.26C138.861 36.5245 140.386 36.1567 142.12 36.1567C143.853 36.1567 145.378 36.5245 146.696 37.26C148.014 37.9955 149.034 39.0221 149.76 40.3397C150.483 41.6573 150.847 43.1699 150.847 44.8841V45.2806C150.847 46.9915 150.486 48.5074 149.76 49.825C149.034 51.1426 148.014 52.1691 146.696 52.9047C145.378 53.6402 143.853 54.008 142.12 54.008C140.386 54.008 138.861 53.6402 137.543 52.9047V52.9015ZM145.151 49.099C145.833 48.2228 146.172 46.9468 146.172 45.2806V44.8841C146.172 43.2147 145.829 41.9419 145.151 41.0656C144.47 40.1894 143.46 39.748 142.123 39.748C140.786 39.748 139.776 40.183 139.094 41.0496C138.413 41.9163 138.074 43.1859 138.074 44.8521V45.2806C138.074 46.95 138.413 48.2228 139.094 49.099C139.776 49.9785 140.783 50.4166 142.123 50.4166C143.463 50.4166 144.47 49.9785 145.151 49.099Z" fill="#381360"/>
<path d="M152.887 53.5762V36.5852H157.333L157.432 39.8792C157.87 38.8046 158.519 37.9348 159.373 37.2792C160.23 36.6204 161.25 36.291 162.437 36.291C162.852 36.291 163.195 36.323 163.457 36.3901V40.8034C163.019 40.7586 162.59 40.7362 162.171 40.7362C160.655 40.7362 159.498 41.1328 158.698 41.9227C157.896 42.7126 157.496 43.8639 157.496 45.3797V53.5794H152.887V53.5762Z" fill="#381360"/>
<path d="M169.91 53.5762H165.302V29.2106H169.91V42.6774L175.936 36.5852H181.334L174.781 43.1059L181.596 53.5762H176.46L171.522 45.9042L169.91 47.516V53.573V53.5762Z" fill="#381360"/>
<path d="M189.831 53.5762V39.9463H186.671V36.5884H189.831V34.1195C189.831 30.5633 191.839 28.7852 195.856 28.7852C196.799 28.7852 197.82 28.9164 198.92 29.1818V32.738C198.152 32.5173 197.471 32.4086 196.879 32.4086C195.977 32.4086 195.347 32.5717 194.986 32.9011C194.625 33.2305 194.442 33.7677 194.442 34.5129V36.5884H198.856V39.9463H194.442V53.5762H189.834H189.831Z" fill="#381360"/>
<path d="M203.032 52.9015C201.715 52.1659 200.695 51.1394 199.969 49.8218C199.243 48.5042 198.881 46.9915 198.881 45.2774V44.8489C198.881 43.1603 199.243 41.6541 199.969 40.3397C200.691 39.0221 201.715 37.9955 203.032 37.26C204.35 36.5245 205.875 36.1567 207.609 36.1567C209.342 36.1567 210.867 36.5245 212.185 37.26C213.503 37.9955 214.523 39.0221 215.249 40.3397C215.971 41.6573 216.336 43.1699 216.336 44.8841V45.2806C216.336 46.9915 215.975 48.5074 215.249 49.825C214.523 51.1426 213.503 52.1691 212.185 52.9047C210.867 53.6402 209.342 54.008 207.609 54.008C205.875 54.008 204.35 53.6402 203.032 52.9047V52.9015ZM210.637 49.099C211.318 48.2228 211.657 46.9468 211.657 45.2806V44.8841C211.657 43.2147 211.315 41.9419 210.637 41.0656C209.956 40.1894 208.945 39.748 207.609 39.748C206.272 39.748 205.261 40.183 204.58 41.0496C203.899 41.9163 203.56 43.1859 203.56 44.8521V45.2806C203.56 46.95 203.899 48.2228 204.58 49.099C205.261 49.9785 206.269 50.4166 207.609 50.4166C208.949 50.4166 209.956 49.9785 210.637 49.099Z" fill="#381360"/>
<path d="M218.376 53.5762V36.5852H222.822L222.921 39.8792C223.359 38.8046 224.008 37.9348 224.862 37.2792C225.719 36.6204 226.739 36.291 227.926 36.291C228.341 36.291 228.684 36.323 228.946 36.3901V40.8034C228.508 40.7586 228.079 40.7362 227.66 40.7362C226.144 40.7362 224.987 41.1328 224.187 41.9227C223.384 42.7126 222.985 43.8639 222.985 45.3797V53.5794H218.376V53.5762Z" fill="#381360"/>
<path d="M240.321 52.5049C238.709 51.5071 237.456 50.1128 236.567 48.3219C235.678 46.5342 235.233 44.5067 235.233 42.2457V41.5229C235.233 39.2395 235.703 37.2088 236.65 35.4307C237.593 33.6526 238.927 32.2647 240.65 31.2669C242.374 30.2691 244.354 29.7702 246.592 29.7702C248.457 29.7702 250.11 30.1156 251.546 30.8064C252.985 31.4972 254.143 32.4598 255.019 33.6878C255.895 34.9158 256.458 36.323 256.698 37.9028H251.76C251.453 36.6076 250.855 35.6034 249.966 34.8903C249.077 34.1771 247.929 33.8189 246.525 33.8189C244.549 33.8189 243.02 34.5225 241.933 35.9264C240.846 37.3303 240.302 39.198 240.302 41.5229V42.2457C240.302 44.5738 240.868 46.4319 241.997 47.8262C243.126 49.2205 244.68 49.9177 246.656 49.9177C248.633 49.9177 250.037 49.4028 251.07 48.3699C252.103 47.3369 252.64 46.0225 252.681 44.4203H246.129V40.6019H256.797V53.5762H253.174L252.777 50.5477C252.186 51.5807 251.268 52.4122 250.027 53.0518C248.786 53.6882 247.408 54.008 245.895 54.008C243.788 54.008 241.926 53.5091 240.315 52.5113L240.321 52.5049Z" fill="#381360"/>
<path d="M262.79 52.9015C261.473 52.1659 260.453 51.1394 259.727 49.8218C259.001 48.5042 258.639 46.9915 258.639 45.2774V44.8489C258.639 43.1603 259.001 41.6541 259.727 40.3397C260.449 39.0221 261.473 37.9955 262.79 37.26C264.108 36.5245 265.633 36.1567 267.367 36.1567C269.1 36.1567 270.625 36.5245 271.943 37.26C273.261 37.9955 274.281 39.0221 275.007 40.3397C275.729 41.6573 276.094 43.1699 276.094 44.8841V45.2806C276.094 46.9915 275.733 48.5074 275.007 49.825C274.281 51.1426 273.261 52.1691 271.943 52.9047C270.625 53.6402 269.1 54.008 267.367 54.008C265.633 54.008 264.108 53.6402 262.79 52.9047V52.9015ZM270.398 49.099C271.08 48.2228 271.419 46.9468 271.419 45.2806V44.8841C271.419 43.2147 271.076 41.9419 270.398 41.0656C269.717 40.1894 268.707 39.748 267.37 39.748C266.033 39.748 265.022 40.183 264.341 41.0496C263.66 41.9163 263.321 43.1859 263.321 44.8521V45.2806C263.321 46.95 263.66 48.2228 264.341 49.099C265.022 49.9785 266.03 50.4166 267.37 50.4166C268.71 50.4166 269.717 49.9785 270.398 49.099Z" fill="#381360"/>
<path d="M281.691 52.9015C280.373 52.1659 279.353 51.1394 278.627 49.8218C277.901 48.5042 277.54 46.9915 277.54 45.2774V44.8489C277.54 43.1603 277.901 41.6541 278.627 40.3397C279.35 39.0221 280.373 37.9955 281.691 37.26C283.008 36.5245 284.534 36.1567 286.267 36.1567C288 36.1567 289.526 36.5245 290.843 37.26C292.161 37.9955 293.181 39.0221 293.907 40.3397C294.63 41.6573 294.994 43.1699 294.994 44.8841V45.2806C294.994 46.9915 294.633 48.5074 293.907 49.825C293.181 51.1426 292.161 52.1691 290.843 52.9047C289.526 53.6402 288 54.008 286.267 54.008C284.534 54.008 283.008 53.6402 281.691 52.9047V52.9015ZM289.295 49.099C289.977 48.2228 290.316 46.9468 290.316 45.2806V44.8841C290.316 43.2147 289.973 41.9419 289.295 41.0656C288.614 40.1894 287.604 39.748 286.267 39.748C284.93 39.748 283.92 40.183 283.238 41.0496C282.557 41.9163 282.218 43.1859 282.218 44.8521V45.2806C282.218 46.95 282.557 48.2228 283.238 49.099C283.92 49.9785 284.927 50.4166 286.267 50.4166C287.607 50.4166 288.614 49.9785 289.295 49.099Z" fill="#381360"/>
<path d="M299.932 52.8855C298.813 52.1403 297.949 51.1074 297.348 49.7898C296.743 48.4722 296.443 46.9691 296.443 45.2806V44.8521C296.443 43.1859 296.734 41.6924 297.316 40.3748C297.898 39.0573 298.736 38.0275 299.836 37.2792C300.933 36.534 302.228 36.1599 303.722 36.1599C304.908 36.1599 305.951 36.4061 306.849 36.9018C307.748 37.3943 308.461 38.0499 308.989 38.8622V29.2138H313.632V53.5794H309.353L309.222 50.9123C308.784 51.7694 308.096 52.4985 307.166 53.1029C306.232 53.7073 305.129 54.008 303.856 54.008C302.362 54.008 301.058 53.6338 299.938 52.8887L299.932 52.8855ZM308.132 49.115C308.813 48.226 309.152 46.9468 309.152 45.2806V44.8521C309.152 43.1859 308.813 41.9067 308.132 41.0176C307.45 40.1286 306.453 39.6841 305.135 39.6841C303.817 39.6841 302.845 40.1286 302.155 41.0176C301.464 41.9067 301.118 43.1859 301.118 44.8521V45.2806C301.118 46.9499 301.464 48.226 302.155 49.115C302.845 50.0041 303.84 50.4486 305.135 50.4486C306.43 50.4486 307.45 50.0041 308.132 49.115Z" fill="#381360"/>
<path d="M316.507 53.3684C316.031 53.1093 315.66 52.7543 315.401 52.2938C315.139 51.8365 315.011 51.3152 315.011 50.7332C315.011 50.1512 315.142 49.6331 315.401 49.179C315.66 48.7248 316.031 48.3699 316.507 48.114C316.984 47.8582 317.537 47.7335 318.164 47.7335C318.791 47.7335 319.344 47.8614 319.821 48.114C320.297 48.3667 320.665 48.7216 320.924 49.179C321.183 49.6331 321.311 50.1512 321.311 50.7332C321.311 51.3152 321.183 51.8461 320.924 52.3002C320.668 52.7543 320.3 53.1125 319.821 53.3684C319.344 53.6242 318.791 53.7553 318.164 53.7553C317.537 53.7553 316.984 53.6274 316.507 53.3684ZM319.888 52.4185C320.291 52.006 320.492 51.4432 320.492 50.7332C320.492 50.0232 320.287 49.4732 319.881 49.0606C319.475 48.6481 318.903 48.4402 318.164 48.4402C317.425 48.4402 316.85 48.6481 316.44 49.0606C316.031 49.4732 315.826 50.0328 315.826 50.7332C315.826 51.4336 316.031 52.0028 316.44 52.4185C316.85 52.8343 317.425 53.039 318.164 53.039C318.903 53.039 319.485 52.8311 319.888 52.4185ZM316.888 52.313V49.1214H318.445C318.797 49.1214 319.079 49.2109 319.29 49.39C319.504 49.5691 319.609 49.825 319.609 50.164V50.2311C319.609 50.471 319.549 50.6724 319.424 50.8419C319.302 51.0082 319.136 51.1266 318.925 51.1937L319.699 52.313H318.768L318.052 51.2737H317.716V52.313H316.888ZM318.356 50.5541C318.484 50.5541 318.58 50.5253 318.647 50.4646C318.714 50.4038 318.746 50.3239 318.746 50.2183V50.1735C318.746 49.9497 318.615 49.8378 318.356 49.8378H317.716V50.5541H318.356Z" fill="#381360"/>
<path d="M54.4495 20.9213V8.47787H59.8477C61.1333 8.47787 62.1439 8.74651 62.8794 9.28377C63.615 9.82104 63.9827 10.6109 63.9827 11.6503V11.8422C63.9827 12.3667 63.8356 12.8592 63.5446 13.3133C63.2536 13.7674 62.8442 14.1192 62.3166 14.3654C63.0073 14.5861 63.5446 14.957 63.9284 15.4783C64.3153 15.9996 64.5072 16.5912 64.5072 17.2564V17.4323C64.5072 18.1327 64.3249 18.7499 63.9635 19.2808C63.6022 19.8116 63.0969 20.2178 62.4477 20.4992C61.7985 20.7806 61.0597 20.9213 60.2315 20.9213H54.4495ZM59.6015 13.5947C60.2315 13.5947 60.6888 13.4732 60.967 13.2365C61.2484 12.9967 61.3891 12.6257 61.3891 12.1236V11.9477C61.3891 11.468 61.242 11.1194 60.951 10.8956C60.66 10.6749 60.2027 10.563 59.5855 10.563H56.9567V13.5947H59.6015ZM59.9692 18.833C60.5769 18.833 61.0502 18.7019 61.3891 18.4397C61.7281 18.1774 61.8976 17.8129 61.8976 17.346V17.1541C61.8976 16.6648 61.7377 16.2938 61.4147 16.0412C61.0949 15.7885 60.6184 15.6638 59.9852 15.6638H56.9535V18.8362H59.9692V18.833Z" fill="#381360"/>
<path d="M67.3119 20.56C66.6115 20.1698 66.0678 19.6229 65.6809 18.9226C65.2939 18.2222 65.1021 17.4163 65.1021 16.5049V16.2778C65.1021 15.3792 65.2939 14.5765 65.6809 13.8761C66.0678 13.1758 66.6083 12.6289 67.3119 12.2387C68.0122 11.8486 68.8245 11.6503 69.7488 11.6503C70.673 11.6503 71.4821 11.8454 72.1856 12.2387C72.886 12.6289 73.4297 13.1758 73.8166 13.8761C74.2036 14.5765 74.3955 15.3824 74.3955 16.2938V16.5049C74.3955 17.4163 74.2036 18.2222 73.8166 18.9226C73.4297 19.6229 72.8892 20.1698 72.1856 20.56C71.4853 20.9501 70.673 21.1484 69.7488 21.1484C68.8245 21.1484 68.0122 20.9533 67.3119 20.56ZM71.3606 18.5356C71.7219 18.0687 71.9042 17.3907 71.9042 16.5017V16.2906C71.9042 15.4016 71.7219 14.7268 71.3606 14.2567C70.9992 13.7898 70.4619 13.5563 69.7488 13.5563C69.0356 13.5563 68.4983 13.7866 68.137 14.2503C67.7756 14.7108 67.5933 15.3856 67.5933 16.2746V16.5017C67.5933 17.3907 67.7756 18.0687 68.137 18.5356C68.4983 19.0025 69.0356 19.236 69.7488 19.236C70.4619 19.236 70.9992 19.0025 71.3606 18.5356Z" fill="#381360"/>
<path d="M75.4796 20.9213V11.8774H77.8462L77.9165 13.2781C78.1724 12.7984 78.5401 12.4082 79.0102 12.1044C79.4835 11.8006 80.072 11.6503 80.7723 11.6503C81.8469 11.6503 82.64 11.9573 83.1453 12.5713C83.6506 13.1853 83.9064 14.0296 83.9064 15.1042V20.9213H81.4695V15.715C81.4695 15.037 81.3416 14.5221 81.0826 14.1639C80.8267 13.809 80.411 13.6299 79.8385 13.6299C79.2661 13.6299 78.8056 13.8313 78.4538 14.2343C78.102 14.6372 77.9293 15.1937 77.9293 15.9069V20.9181H75.4764L75.4796 20.9213Z" fill="#381360"/>
<path d="M86.0458 18.3086V13.6651H84.3636V11.8774H86.0458V9.00235H88.4987V11.8774H90.846V13.6651H88.4987V18.0975C88.4987 18.494 88.5978 18.7819 88.7961 18.9546C88.9944 19.1305 89.327 19.2168 89.7939 19.2168C90.1105 19.2168 90.4718 19.1592 90.8812 19.0409V20.9149C90.6701 20.9853 90.4143 21.0397 90.1105 21.0812C89.8067 21.1228 89.522 21.142 89.2534 21.142C87.1139 21.142 86.0458 20.1954 86.0458 18.3022V18.3086Z" fill="#381360"/>
<path d="M93.5451 20.5695C92.8447 20.1826 92.3075 19.6421 91.9333 18.9386C91.5591 18.235 91.3737 17.4259 91.3737 16.5017V16.2746C91.3737 15.3632 91.5623 14.5573 91.9429 13.8569C92.3235 13.1566 92.8671 12.6129 93.5739 12.2259C94.2807 11.839 95.1025 11.6471 96.0364 11.6471C97.5426 11.6471 98.6811 12.1332 99.455 13.1022C100.226 14.0712 100.571 15.3632 100.488 16.975H93.8809C93.996 18.5068 94.7156 19.2712 96.0364 19.2712C96.5608 19.2712 96.9926 19.1592 97.3252 18.9386C97.6578 18.7179 97.8816 18.4205 97.9999 18.0463H100.437C100.216 19.0153 99.7173 19.7764 98.9465 20.3233C98.1758 20.8734 97.2068 21.1484 96.0364 21.1484C95.077 21.1484 94.2487 20.9565 93.5483 20.5695H93.5451ZM97.9808 15.3632C97.9232 14.7779 97.7281 14.327 97.4019 14.004C97.0757 13.6842 96.612 13.5211 96.0172 13.5211C95.4223 13.5211 94.933 13.6746 94.5877 13.9752C94.2423 14.2791 94.0184 14.7396 93.9129 15.36H97.9775L97.9808 15.3632Z" fill="#381360"/>
<path d="M101.588 20.9214V11.8774H103.955L104.006 13.6299C104.239 13.0574 104.585 12.5969 105.039 12.2451C105.493 11.8934 106.037 11.7207 106.67 11.7207C106.89 11.7207 107.073 11.7367 107.213 11.7718V14.1192C106.98 14.0968 106.753 14.084 106.529 14.084C105.723 14.084 105.106 14.2951 104.681 14.714C104.255 15.1361 104.041 15.747 104.041 16.5529V20.915H101.588V20.9214Z" fill="#381360"/>
<path d="M108.09 20.9214V11.8774H110.456L110.507 13.6299C110.741 13.0574 111.086 12.5969 111.54 12.2451C111.994 11.8934 112.538 11.7207 113.171 11.7207C113.392 11.7207 113.574 11.7367 113.715 11.7718V14.1192C113.482 14.0968 113.255 14.084 113.031 14.084C112.225 14.084 111.608 14.2951 111.182 14.714C110.757 15.1361 110.543 15.747 110.543 16.5529V20.915H108.09V20.9214Z" fill="#381360"/>
<path d="M115.301 20.7966C114.841 20.5632 114.479 20.237 114.224 19.8148C113.968 19.3927 113.837 18.9226 113.837 18.3949C113.837 17.6338 114.064 17.0294 114.521 16.5721C114.975 16.1179 115.624 15.8301 116.465 15.7118L119.794 15.2385V14.714C119.794 14.3271 119.667 14.0296 119.407 13.8218C119.152 13.6107 118.758 13.5052 118.234 13.5052C117.709 13.5052 117.332 13.6011 117.035 13.793C116.737 13.9849 116.564 14.2759 116.516 14.6596H114.204C114.275 13.7034 114.674 12.9615 115.404 12.4338C116.133 11.9094 117.095 11.6439 118.285 11.6439C119.475 11.6439 120.45 11.9221 121.131 12.4754C121.816 13.0319 122.158 13.7866 122.158 14.746V20.915H119.897L119.81 19.5302C119.529 20.0323 119.136 20.4257 118.627 20.7135C118.119 21.0013 117.537 21.142 116.884 21.142C116.289 21.142 115.759 21.0237 115.298 20.7902L115.301 20.7966ZM119.168 18.8267C119.59 18.5069 119.798 18.1007 119.798 17.6082V16.8887L117.345 17.2213C116.958 17.2788 116.673 17.3907 116.485 17.5538C116.299 17.7169 116.203 17.9568 116.203 18.2734C116.203 18.59 116.328 18.8554 116.58 19.0345C116.833 19.2168 117.178 19.3064 117.623 19.3064C118.231 19.3064 118.745 19.1465 119.164 18.8235L119.168 18.8267Z" fill="#381360"/>
<path d="M123.702 20.9213H123.274V19.2008H122.685V18.849H124.291V19.2008H123.706V20.9213H123.702Z" fill="#381360"/>
<path d="M124.873 20.9213H124.454V18.849H125.074L125.583 20.3841L126.088 18.849H126.677V20.9213H126.267V19.3383L125.743 20.9213H125.401L124.873 19.3351V20.9213Z" fill="#381360"/>
<path d="M0.00319809 30.7361C0.0127921 30.5411 0.0255839 30.3428 0.0319799 30.1477C0.0863461 28.6286 0.294217 27.132 0.652394 25.6545C1.03935 24.0587 1.59901 22.5236 2.32495 21.0494C3.20121 19.2713 4.29813 17.6435 5.60931 16.1564C5.83637 15.8974 6.07302 15.6447 6.32247 15.3697V33.56H0.147109C0.121524 33.2722 0.0895442 32.9811 0.0735541 32.6901C0.051168 32.2584 0.038376 31.8235 0.0191879 31.3917C0.0191879 31.3693 0.00639602 31.3438 0 31.3214V30.7393L0.00319809 30.7361Z" fill="#381360"/>
<path d="M20.4224 47.0172H10.7421V28.4943H20.4224V47.0172Z" fill="#381360"/>
<path d="M24.791 15.0403H34.4554V33.56H24.791V15.0403Z" fill="#381360"/>
<path d="M24.2857 20.5952V27.989H6.82458V20.5952H24.2857Z" fill="#381360"/>
<path d="M20.9246 41.4591V34.0652H38.2994V41.4591H20.9246Z" fill="#381360"/>
<path d="M10.7389 20.1027V11.8199C13.713 10.0002 16.9398 8.92887 20.4225 8.57709V20.1027H10.7389Z" fill="#381360"/>
<path d="M34.465 41.9644V50.1928C31.4972 52.0221 28.28 53.1126 24.7974 53.474V41.9644H34.465Z" fill="#381360"/>
<path d="M38.8015 46.6814V28.4975H44.9769C45.3414 31.9002 44.9929 35.2261 43.8704 38.4657C42.7926 41.571 41.0945 44.2957 38.8047 46.6846L38.8015 46.6814Z" fill="#381360"/>
<path d="M24.2857 47.5321V53.5315C17.7521 53.9153 12.0565 51.9453 7.2019 47.564C7.2019 47.5513 7.2083 47.5417 7.2083 47.5289H24.2857V47.5321Z" fill="#381360"/>
<path d="M37.9124 14.5318H20.9277V8.52273C27.4261 8.16136 33.093 10.1345 37.922 14.4934C37.9188 14.5062 37.9156 14.519 37.9124 14.5318Z" fill="#381360"/>
<path d="M0.214233 34.0589H10.2272V41.4623H2.56477C1.34953 39.1341 0.566015 36.6684 0.214233 34.0589Z" fill="#381360"/>
<path d="M42.5656 20.5952C43.7808 22.9266 44.5643 25.3891 44.9129 27.9954H34.9735V20.5952H42.5656Z" fill="#381360"/>
<path d="M2.8335 41.9644H6.32572V46.6814C4.95378 45.2551 3.7961 43.6945 2.8335 41.9644Z" fill="#381360"/>
<path d="M38.8047 15.3985C39.4827 15.8782 41.9291 19.1817 42.2809 20.0963H38.8047V15.3985Z" fill="#381360"/>
<path d="M10.2272 14.5318H7.18274C8.13894 13.6428 9.13992 12.856 10.2272 12.1429V14.5318Z" fill="#381360"/>
<path d="M34.9735 49.8634V47.5257H37.9445C37.0106 48.3924 36.0353 49.1663 34.9735 49.8634Z" fill="#381360"/>
</g>
<defs>
<clipPath id="clip0_22_1051">
<rect width="321.8" height="63.9602" fill="white"/>
</clipPath>
</defs>
</svg>
