<svg width="16" height="16" viewBox="0 0 16 16" fill="none" xmlns="http://www.w3.org/2000/svg">
<path d="M2.38921 12.385V13.7025C2.38879 13.7021 2.38836 13.7017 2.38794 13.7013C1.98365 13.3033 1.62147 12.8626 1.30875 12.3865C1.30841 12.386 1.3081 12.3855 1.30776 12.385H2.38921ZM3.4425 1.42424C3.44247 1.42424 3.44246 1.42427 3.44244 1.42427C3.06578 1.68583 2.71268 1.97891 2.38693 2.29969H3.4425V1.42424ZM7.33663 3.61591V0.0271354C6.03128 0.134271 4.81471 0.554792 3.76232 1.21333V3.61591H7.33663ZM7.66115 11.7487H13.3198V8.97771H12.9204H7.66115V11.7487ZM12.5858 7.02305H15.9409C15.9409 7.02273 15.9409 7.02242 15.9408 7.02213C15.8202 6.03203 15.5186 5.09776 15.0702 4.25338C15.07 4.25294 15.0698 4.2525 15.0695 4.25206H12.5858V7.02305ZM12.5859 14.556C12.9511 14.3 13.294 14.0143 13.6109 13.7024C13.611 13.7023 13.6111 13.7022 13.6113 13.7021H12.5859V14.556ZM2.38874 2.93734H1.80539C0.676992 4.31638 0 6.07911 0 8C0 8.11388 0.00238291 8.22721 0.00709635 8.33992C0.00709635 8.34008 0.00710958 8.34021 0.00710958 8.34036H2.38874V2.93734ZM13.6114 13.0646H14.193C14.1932 13.0643 14.1935 13.0641 14.1937 13.0638C15.3226 11.6846 16 9.9214 16 8C16 7.88625 15.9976 7.77307 15.9929 7.66049H13.6114V13.0646ZM8.69171 12.3862V15.9705C8.69172 15.9705 8.69174 15.9705 8.69177 15.9705C9.99758 15.8587 11.2138 15.4331 12.2648 14.7696C12.2652 14.7694 12.2656 14.7691 12.266 14.7689L12.2648 12.3862H8.69171ZM3.76232 13.0646H7.33663V12.8964V7.66052H3.76232V13.0646ZM12.2648 2.93677H8.69171V8.34091H12.2648V8.01878V2.93677ZM14.692 3.61461C14.6919 3.6145 14.6919 3.61443 14.6918 3.61432C14.3788 3.13771 14.0162 2.69659 13.6114 2.29818L13.6114 3.61461H14.692ZM2.70904 13.7021V14.0006C2.70912 14.0007 2.70918 14.0007 2.70926 14.0008C4.11941 15.245 5.97154 16 8 16H8.00001C8.12461 16 8.24856 15.9972 8.37177 15.9915C8.37185 15.9915 8.37191 15.9915 8.37199 15.9915L8.37177 13.7024L2.70904 13.7021ZM3.44249 8.97771H0.0591538C0.0591929 8.97802 0.0592189 8.97831 0.059258 8.97859C0.180078 9.96924 0.481992 10.904 0.930873 11.7487H3.44249V8.97771ZM13.2915 2.2987V1.99987C11.8812 0.755234 10.0288 0 8.00001 0H8C7.88647 0 7.77351 0.00236979 7.66115 0.00705729C7.65961 0.00710937 7.65809 0.00721355 7.65656 0.00729167L7.66115 2.2987H13.2915ZM8.3719 4.25336H8.04277H2.70859V7.02435H8.3719V4.25336Z" fill="#420C7D"/>
</svg>
