<?xml version="1.0" standalone="no"?>
<!DOCTYPE svg PUBLIC "-//W3C//DTD SVG 20010904//EN"
 "http://www.w3.org/TR/2001/REC-SVG-20010904/DTD/svg10.dtd">
<svg version="1.0" xmlns="http://www.w3.org/2000/svg"
 width="400.000000pt" height="400.000000pt" viewBox="0 0 400.000000 400.000000"
 preserveAspectRatio="xMidYMid meet">
<metadata>
Created by potrace 1.11, written by Peter Selinger 2001-2013
</metadata>
<g transform="translate(0.000000,400.000000) scale(0.100000,-0.100000)"
fill="#000000" stroke="none">
<path d="M2010 3987 c-19 -8 -48 -20 -64 -26 -16 -7 -62 -45 -102 -85 -87 -89
-119 -152 -194 -381 -62 -190 -96 -260 -153 -318 -35 -37 -54 -47 -112 -62
-93 -24 -162 -57 -227 -107 -151 -118 -283 -232 -368 -318 -94 -93 -112 -120
-279 -400 -45 -76 -141 -278 -161 -340 -43 -135 -36 -236 20 -265 26 -14 33
-13 70 1 52 21 159 135 274 295 195 270 264 357 335 426 41 40 77 70 79 68 2
-2 -4 -48 -13 -102 -9 -54 -19 -111 -22 -128 -2 -16 -13 -67 -23 -112 -11 -46
-21 -93 -24 -105 -6 -37 -118 -418 -133 -458 -3 -8 -7 -19 -8 -25 -11 -49 -72
-194 -132 -317 -40 -82 -107 -237 -149 -346 -42 -108 -82 -210 -89 -227 -66
-152 -130 -347 -140 -423 -11 -90 43 -177 117 -186 71 -9 104 30 318 369 109
173 320 486 390 580 82 109 109 163 195 379 36 91 74 180 84 197 l19 31 27
-45 c92 -158 194 -499 209 -702 23 -305 135 -648 253 -776 72 -78 176 -105
220 -56 42 45 44 104 14 342 -11 88 -23 245 -26 349 -3 103 -7 191 -9 195 -2
3 -7 42 -11 86 -14 165 -35 274 -79 409 -64 194 -89 319 -90 446 -1 117 0 126
45 296 l32 121 66 -67 c41 -41 89 -78 126 -96 53 -26 70 -29 150 -28 187 2
525 90 673 174 54 31 92 79 92 115 0 36 -37 82 -85 105 -39 19 -67 24 -154 26
-58 1 -126 -1 -151 -6 -25 -4 -61 -11 -81 -14 -20 -3 -47 -9 -60 -14 -37 -13
-122 -15 -167 -2 -53 14 -114 75 -193 193 -101 150 -215 277 -300 334 -41 27
-82 100 -75 135 13 71 44 104 181 196 105 70 156 118 200 187 114 178 65 377
-114 469 -45 24 -156 30 -201 13z"/>
<path d="M3273 3252 c-197 -70 -324 -331 -327 -677 l-1 -60 36 -2 c34 -3 37
-1 53 39 26 69 79 133 128 156 44 20 159 48 241 57 114 13 134 17 157 32 67
43 114 134 113 219 -2 101 -52 176 -153 228 -59 30 -172 34 -247 8z"/>
<path d="M2445 3216 c-84 -38 -130 -168 -91 -261 18 -43 75 -79 151 -95 155
-32 261 -133 299 -283 10 -40 18 -53 34 -55 18 -3 21 3 24 40 3 42 -6 181 -17
246 -32 203 -115 356 -219 403 -48 22 -137 24 -181 5z"/>
</g>
</svg>
